<svg width="66" height="42" viewBox="0 0 66 42" fill="none" xmlns="http://www.w3.org/2000/svg">
<path d="M39.0474 29.0265C37.3492 26.33 35.7203 23.5623 33.5579 21.2666C32.5156 20.1475 31.3595 19.153 30.1472 18.4072C28.9534 17.6558 27.7007 17.4461 26.5595 16.5681C25.1795 15.4996 24.2747 13.8656 24.1183 12.1389C23.6629 6.90402 28.7869 4.9682 32.3715 4.65172C38.5907 4.11147 45.7598 9.64571 50.8808 15.4097C54.6892 19.6919 57.6593 25.2428 57.7114 30.6788C57.7585 35.2599 55.6328 38.7174 51.8856 39.3646C48.6295 39.9355 45.006 37.039 42.3815 33.8436C41.1789 32.3592 40.0974 30.7076 39.0474 29.0265Z" fill="#FFC961"/>
<path d="M6.99815 17.7638C10.8517 19.839 15.6554 18.4021 17.7275 14.5543C19.7996 10.7066 18.3555 5.90502 14.5019 3.82979C10.6483 1.75457 5.84464 3.1915 3.77253 7.03927C1.70043 10.887 3.14459 15.6886 6.99815 17.7638Z" fill="#FFC961"/>
</svg>
