<svg width="636" height="214" viewBox="0 0 636 214" fill="none" xmlns="http://www.w3.org/2000/svg">
<path d="M287.178 13.1119L234.81 214H175.574L143.523 81.7916L110.328 214H51.0916L0.154136 13.1119H52.5224L81.4251 159.342L117.196 13.1119H170.995L205.335 159.342L234.524 13.1119H287.178ZM596.823 110.98C608.46 113.461 617.808 119.279 624.867 128.437C631.925 137.403 635.455 147.705 635.455 159.342C635.455 176.131 629.541 189.485 617.713 199.406C606.075 209.135 589.764 214 568.778 214H475.202V13.1119H565.63C586.044 13.1119 601.973 17.7859 613.42 27.134C625.057 36.482 630.876 49.1687 630.876 65.194C630.876 77.0221 627.728 86.8471 621.433 94.669C615.328 102.491 607.124 107.928 596.823 110.98ZM524.136 94.3828H556.187C564.2 94.3828 570.305 92.6659 574.502 89.2319C578.889 85.6071 581.083 80.3607 581.083 73.4928C581.083 66.6248 578.889 61.3784 574.502 57.7537C570.305 54.1289 564.2 52.3165 556.187 52.3165H524.136V94.3828ZM560.193 174.509C568.397 174.509 574.692 172.697 579.08 169.072C583.659 165.256 585.948 159.819 585.948 152.761C585.948 145.702 583.564 140.169 578.794 136.163C574.215 132.157 567.824 130.154 559.621 130.154H524.136V174.509H560.193Z" fill="white"/>
<path d="M305.137 174.795C311.624 169.644 314.581 167.26 314.008 167.641C332.704 152.188 347.394 139.502 358.078 129.581C368.952 119.661 378.109 109.263 385.55 98.3892C392.99 87.5149 396.71 76.9267 396.71 66.6248C396.71 58.8029 394.898 52.6981 391.273 48.3102C387.648 43.9223 382.211 41.7284 374.962 41.7284C367.712 41.7284 361.989 44.4947 357.792 50.0272C353.785 55.369 351.782 63 351.782 72.9204H304.565C304.946 56.7044 308.38 43.1592 314.867 32.2849C321.544 21.4107 330.224 13.398 340.908 8.24704C351.782 3.09606 363.801 0.52057 376.965 0.52057C399.667 0.52057 416.742 6.33927 428.188 17.9767C439.826 29.6141 445.644 44.7808 445.644 63.477C445.644 83.8901 438.681 102.872 424.754 120.424C410.828 137.785 393.085 154.764 371.528 171.361H448.792V211.138H305.137V174.795Z" fill="#AA8BFF"/>
</svg>
