<svg width="514" height="75" viewBox="0 0 514 75" fill="none" xmlns="http://www.w3.org/2000/svg">
<path d="M99.8051 4.51877L81.6924 74H61.2044L50.1191 28.273L38.6378 74H18.1498L0.53202 4.51877H18.6446L28.6412 55.0956L41.0132 4.51877H59.6208L71.4979 55.0956L81.5935 4.51877H99.8051ZM142.242 18.1775C148.576 18.1775 153.657 20.289 157.484 24.5119C161.311 28.6689 163.225 34.4096 163.225 41.7338V74H146.399V44.0102C146.399 40.3151 145.442 37.4448 143.529 35.3993C141.615 33.3538 139.042 32.3311 135.808 32.3311C132.575 32.3311 130.002 33.3538 128.088 35.3993C126.175 37.4448 125.218 40.3151 125.218 44.0102V74H108.293V0.757682H125.218V26.1945C126.934 23.7531 129.276 21.8066 132.245 20.3549C135.215 18.9033 138.547 18.1775 142.242 18.1775ZM227.047 45.4949C227.047 47.0785 226.948 48.7281 226.75 50.4437H188.447C188.711 53.8749 189.799 56.5142 191.713 58.3618C193.692 60.1433 196.101 61.0341 198.938 61.0341C203.161 61.0341 206.097 59.2526 207.747 55.6894H225.761C224.837 59.3185 223.154 62.5848 220.713 65.4881C218.337 68.3914 215.335 70.6678 211.706 72.3174C208.077 73.967 204.019 74.7918 199.532 74.7918C194.121 74.7918 189.304 73.6371 185.081 71.3276C180.858 69.0182 177.559 65.719 175.184 61.43C172.808 57.1411 171.621 52.1263 171.621 46.3857C171.621 40.6451 172.775 35.6303 175.085 31.3413C177.46 27.0523 180.76 23.7531 184.983 21.4437C189.205 19.1342 194.055 17.9795 199.532 17.9795C204.877 17.9795 209.628 19.1013 213.785 21.3447C217.942 23.5882 221.175 26.7884 223.484 30.9454C225.86 35.1024 227.047 39.9522 227.047 45.4949ZM209.727 41.041C209.727 38.1377 208.737 35.8282 206.757 34.1126C204.778 32.397 202.303 31.5392 199.334 31.5392C196.497 31.5392 194.088 32.3641 192.109 34.0137C190.195 35.6633 189.008 38.0057 188.546 41.041H209.727ZM252.901 27.9761C254.88 24.9408 257.355 22.5654 260.324 20.8498C263.293 19.0683 266.593 18.1775 270.222 18.1775V36.0922H265.57C261.347 36.0922 258.18 37.0159 256.068 38.8635C253.957 40.6451 252.901 43.8123 252.901 48.3652V74H235.976V18.7713H252.901V27.9761ZM330.373 45.4949C330.373 47.0785 330.274 48.7281 330.076 50.4437H291.772C292.036 53.8749 293.125 56.5142 295.039 58.3618C297.018 60.1433 299.426 61.0341 302.264 61.0341C306.487 61.0341 309.423 59.2526 311.073 55.6894H329.086C328.163 59.3185 326.48 62.5848 324.039 65.4881C321.663 68.3914 318.661 70.6678 315.032 72.3174C311.403 73.967 307.345 74.7918 302.858 74.7918C297.447 74.7918 292.63 73.6371 288.407 71.3276C284.184 69.0182 280.885 65.719 278.51 61.43C276.134 57.1411 274.946 52.1263 274.946 46.3857C274.946 40.6451 276.101 35.6303 278.411 31.3413C280.786 27.0523 284.085 23.7531 288.308 21.4437C292.531 19.1342 297.381 17.9795 302.858 17.9795C308.202 17.9795 312.953 19.1013 317.11 21.3447C321.267 23.5882 324.5 26.7884 326.81 30.9454C329.185 35.1024 330.373 39.9522 330.373 45.4949ZM313.052 41.041C313.052 38.1377 312.062 35.8282 310.083 34.1126C308.103 32.397 305.629 31.5392 302.66 31.5392C299.822 31.5392 297.414 32.3641 295.434 34.0137C293.521 35.6633 292.333 38.0057 291.871 41.041H313.052ZM437.911 38.3686C441.936 39.2264 445.169 41.2389 447.61 44.4061C450.052 47.5074 451.272 51.0705 451.272 55.0956C451.272 60.9022 449.227 65.521 445.136 68.9522C441.111 72.3174 435.469 74 428.211 74H395.846V4.51877H427.122C434.182 4.51877 439.692 6.13538 443.651 9.3686C447.676 12.6018 449.689 16.9898 449.689 22.5324C449.689 26.6234 448.6 30.0216 446.422 32.727C444.311 35.4323 441.474 37.3129 437.911 38.3686ZM412.771 32.628H423.856C426.627 32.628 428.739 32.0341 430.19 30.8464C431.708 29.5927 432.467 27.7782 432.467 25.4027C432.467 23.0273 431.708 21.2127 430.19 19.959C428.739 18.7053 426.627 18.0785 423.856 18.0785H412.771V32.628ZM425.242 60.3413C428.079 60.3413 430.256 59.7144 431.774 58.4608C433.358 57.1411 434.149 55.2605 434.149 52.8191C434.149 50.3777 433.325 48.4642 431.675 47.0785C430.091 45.6928 427.881 45 425.044 45H412.771V60.3413H425.242ZM513.15 45.4949C513.15 47.0785 513.051 48.7281 512.853 50.4437H474.549C474.813 53.8749 475.902 56.5142 477.816 58.3618C479.795 60.1433 482.204 61.0341 485.041 61.0341C489.264 61.0341 492.2 59.2526 493.85 55.6894H511.863C510.94 59.3185 509.257 62.5848 506.816 65.4881C504.44 68.3914 501.438 70.6678 497.809 72.3174C494.18 73.967 490.122 74.7918 485.635 74.7918C480.224 74.7918 475.407 73.6371 471.184 71.3276C466.961 69.0182 463.662 65.719 461.287 61.43C458.911 57.1411 457.724 52.1263 457.724 46.3857C457.724 40.6451 458.878 35.6303 461.188 31.3413C463.563 27.0523 466.862 23.7531 471.085 21.4437C475.308 19.1342 480.158 17.9795 485.635 17.9795C490.98 17.9795 495.73 19.1013 499.887 21.3447C504.044 23.5882 507.278 26.7884 509.587 30.9454C511.962 35.1024 513.15 39.9522 513.15 45.4949ZM495.829 41.041C495.829 38.1377 494.84 35.8282 492.86 34.1126C490.881 32.397 488.406 31.5392 485.437 31.5392C482.6 31.5392 480.191 32.3641 478.212 34.0137C476.298 35.6633 475.11 38.0057 474.648 41.041H495.829Z" fill="white"/>
<path d="M337.025 60.4403C339.269 58.6587 340.291 57.8339 340.094 57.9659C346.56 52.6212 351.641 48.2332 355.336 44.802C359.097 41.3709 362.264 37.7747 364.838 34.0137C367.411 30.2526 368.698 26.5904 368.698 23.0273C368.698 20.322 368.071 18.2105 366.817 16.6928C365.563 15.1752 363.683 14.4164 361.175 14.4164C358.668 14.4164 356.689 15.3731 355.237 17.2867C353.851 19.1342 353.158 21.7736 353.158 25.2048H336.827C336.959 19.5961 338.147 14.9113 340.39 11.1502C342.7 7.38908 345.702 4.61775 349.397 2.83618C353.158 1.05461 357.315 0.163821 361.868 0.163821C369.72 0.163821 375.626 2.17633 379.585 6.20136C383.61 10.2264 385.623 15.4721 385.623 21.9386C385.623 28.9989 383.214 35.5643 378.397 41.6348C373.58 47.6394 367.444 53.5119 359.988 59.2526H386.711V73.0102H337.025V60.4403Z" fill="#AA8BFF"/>
</svg>
