<svg width="203" height="87" viewBox="0 0 203 87" fill="none" xmlns="http://www.w3.org/2000/svg">
<path d="M201.32 63.9263C200.297 68.9448 196.605 73.2327 190.674 76.669C184.743 80.105 176.626 82.6567 166.877 84.2125C147.384 87.3235 121.477 86.4354 93.7857 80.7919C66.0945 75.1485 41.906 65.827 25.1849 55.3355C16.8226 50.0886 10.3515 44.5638 6.23875 39.0811C2.12561 33.5979 0.405823 28.207 1.42861 23.1884C2.45139 18.1698 6.14374 13.8819 12.0747 10.4456C18.005 7.0097 26.1222 4.458 35.8708 2.90219C55.3641 -0.208805 81.2713 0.679246 108.963 6.32273C136.654 11.9662 160.842 21.2877 177.563 31.7792C185.926 37.026 192.397 42.5508 196.509 48.0335C200.623 53.5168 202.342 58.9077 201.32 63.9263Z" stroke="white"/>
</svg>
